# File created by Blade
# Date/Time:  Thu Jan 22 16:16:16 2015
#---------------------------------------------------------
:version 1.10
:name HOM
:units
  mass 1.0
  length 1.000000
  angle deg
:documentation
     Acclaim Skeleton File
:root
   axis xyz
   order TX TY TZ RX RY RZ
   position 0.000000 0.000000 0.000000
   orientation 0 0 0
:bonedata
   begin
      id 1
      name RightUpLeg_dum
      direction -1.000000 0.000000 0.000000
      length 3.766986
      axis 0.0 0.0 0.0 xyz
   end
   begin
      id 2
      name LeftUpLeg_dum
      direction 1.000000 0.000000 0.000000
      length 3.766986
      axis 0.0 0.0 0.0 xyz
   end
   begin
      id 3
      name Spine_dum
      direction 0.000000 1.000000 0.000000
      length 7.779697
      axis 0.0 0.0 0.0 xyz
   end
   begin
      id 4
      name RightUpLeg
      direction 0.000000 -1.000000 0.000000
      length 18.017682
      axis 0.0 0.0 0.0 xyz
      dof rx ry rz
   end
   begin
      id 5
      name RightLeg
      direction 0.000000 -1.000000 0.000000
      length 16.881075
      axis 0.0 0.0 0.0 xyz
      dof rx ry rz
   end
   begin
      id 6
      name RightFoot
      direction 0.000000 -0.258819 0.965926
      length 5.770812
      axis 15.0 0.0 0.0 xyz
      dof rx ry rz
   end
   begin
      id 7
      name RightToeBase
      direction 0.000000 0.000000 1.000000
      length 2.952750
      axis 0.0 0.0 0.0 xyz
      dof rx ry rz
   end
   begin
      id 8
      name LeftUpLeg
      direction 0.000000 -1.000000 0.000000
      length 18.017682
      axis 0.0 0.0 0.0 xyz
      dof rx ry rz
   end
   begin
      id 9
      name LeftLeg
      direction 0.000000 -1.000000 0.000000
      length 16.881075
      axis 0.0 0.0 0.0 xyz
      dof rx ry rz
   end
   begin
      id 10
      name LeftFoot
      direction 0.000000 -0.258819 0.965926
      length 5.770812
      axis 15.0 0.0 0.0 xyz
      dof rx ry rz
   end
   begin
      id 11
      name LeftToeBase
      direction 0.000000 0.000000 1.000000
      length 2.952750
      axis 0.0 0.0 0.0 xyz
      dof rx ry rz
   end
   begin
      id 12
      name Spine
      direction 0.000000 1.000000 0.000000
      length 0.000000
      axis 0.0 0.0 0.0 xyz
      dof rx ry rz
   end
   begin
      id 13
      name Spine_dum1
      direction 0.000000 1.000000 0.000000
      length 10.941760
      axis 0.0 0.0 0.0 xyz
   end
   begin
      id 14
      name Spine_dum2
      direction 0.000000 1.000000 0.000000
      length 10.941760
      axis 0.0 0.0 0.0 xyz
   end
   begin
      id 15
      name Spine_dum3
      direction 0.000000 1.000000 0.000000
      length 16.646042
      axis 0.0 0.0 0.0 xyz
   end
   begin
      id 16
      name RightShoulder
      direction -1.000000 0.000000 0.000000
      length 7.708937
      axis 0.0 0.0 90.0 xyz
      dof rx ry rz
   end
   begin
      id 17
      name RightArm
      direction -1.000000 0.000000 0.000000
      length 11.521345
      axis 0.0 0.0 90.0 xyz
      dof rx ry rz
   end
   begin
      id 18
      name RightForeArm
      direction -1.000000 0.000000 0.000000
      length 10.175898
      axis 0.0 0.0 90.0 xyz
      dof ry rz rx
   end
   begin
      id 19
      name RightHand
      direction -1.000000 0.000000 0.000000
      length 0.000000
      axis 0.0 0.0 90.0 xyz
      dof rx ry rz
   end
   begin
      id 20
      name RightHand_dum1
      direction -1.000000 0.000000 0.000000
      length 3.937000
      axis 0.0 0.0 90.0 xyz
   end
   begin
      id 21
      name RightHand_dum2
      direction 0.000000 0.000000 0.000000
      length 0.000000
      axis 0.0 0.0 90.0 xyz
   end
   begin
      id 22
      name RightHandThumb1
      direction 0.000000 0.000000 1.000000
      length 3.937000
      axis 0.0 0.0 90.0 xyz
      dof rx rz ry
   end
   begin
      id 23
      name LeftShoulder
      direction 1.000000 0.000000 0.000000
      length 7.708937
      axis 0.0 0.0 -90.0 xyz
      dof rx ry rz
   end
   begin
      id 24
      name LeftArm
      direction 1.000000 0.000000 0.000000
      length 11.521345
      axis 0.0 0.0 -90.0 xyz
      dof rx ry rz
   end
   begin
      id 25
      name LeftForeArm
      direction 1.000000 0.000000 0.000000
      length 10.175898
      axis 0.0 0.0 -90.0 xyz
      dof ry rz rx
   end
   begin
      id 26
      name LeftHand
      direction 1.000000 0.000000 0.000000
      length 0.000000
      axis 0.0 0.0 -90.0 xyz
      dof rx ry rz
   end
   begin
      id 27
      name LeftHand_dum1
      direction 1.000000 0.000000 0.000000
      length 3.937000
      axis 0.0 0.0 -90.0 xyz
   end
   begin
      id 28
      name LeftHand_dum2
      direction 0.000000 0.000000 0.000000
      length 0.000000
      axis 0.0 0.0 -90.0 xyz
   end
   begin
      id 29
      name LeftHandThumb1
      direction 0.000000 0.000000 1.000000
      length 3.937000
      axis 0.0 0.0 -90.0 xyz
      dof rx rz ry
   end
   begin
      id 30
      name Head
      direction 0.000000 1.000000 0.000000
      length 4.527550
      axis 0.0 0.0 0.0 xyz
      dof rx ry rz
   end
:hierarchy
   begin
      root RightUpLeg_dum LeftUpLeg_dum Spine_dum
      RightUpLeg_dum RightUpLeg
      LeftUpLeg_dum LeftUpLeg
      Spine_dum Spine
      RightUpLeg RightLeg
      RightLeg RightFoot
      RightFoot RightToeBase
      LeftUpLeg LeftLeg
      LeftLeg LeftFoot
      LeftFoot LeftToeBase
      Spine Spine_dum1 Spine_dum2 Spine_dum3
      Spine_dum1 RightShoulder
      Spine_dum2 LeftShoulder
      Spine_dum3 Head
      RightShoulder RightArm
      RightArm RightForeArm
      RightForeArm RightHand
      RightHand RightHand_dum1 RightHand_dum2
      RightHand_dum2 RightHandThumb1
      LeftShoulder LeftArm
      LeftArm LeftForeArm
      LeftForeArm LeftHand
      LeftHand LeftHand_dum1 LeftHand_dum2
      LeftHand_dum2 LeftHandThumb1
   end

# File created by Blade
# Date/Time:  Thu Jan 22 16:16:06 2015
# Frame Rate: 120.000 fps
#------------------------------------------------------
:FULLY-SPECIFIED
:DEGREES
43
root -0.318120 37.170750 -1.445578 -2.891784 -3.737963 1.045538
RightUpLeg 10.847475 -8.124139 -4.206281
RightLeg -5.688293 -0.000000 0.000000
RightFoot -11.562078 -17.048894 18.347152
RightToeBase 13.779779 -0.000000 -0.000000
LeftUpLeg 9.495122 0.833808 5.777307
LeftLeg -2.918236 -0.000000 0.000000
LeftFoot -7.107094 10.364197 -21.269221
LeftToeBase 7.853622 -0.000000 -0.000000
Spine 7.011540 -3.729480 -0.841772
RightShoulder -4.227292 -5.581821 -26.840521
RightArm 6.387680 32.377911 32.095797
RightForeArm 3.908668 0.000000 17.233408
RightHand 0.684027 0.000000 2.753811
RightHandThumb1 -24.326973 -0.000000 -32.862282
LeftShoulder -23.208716 28.713080 14.867000
LeftArm 50.831718 -52.965946 -60.157569
LeftForeArm 43.433150 0.000000 2.889582
LeftHand -20.443971 -0.000000 -4.200551
LeftHandThumb1 -26.253704 0.000000 33.147579
Head -1.237713 13.207668 1.703133
44
root -0.339612 37.171124 -1.457972 -2.932498 -3.737898 1.029975
RightUpLeg 10.863556 -8.092982 -4.155829
RightLeg -5.664814 -0.000000 0.000000
RightFoot -11.597616 -17.060127 18.363564
RightToeBase 13.971370 -0.000000 -0.000000
LeftUpLeg 9.490072 0.840665 5.830873
LeftLeg -2.861536 -0.000000 0.000000
LeftFoot -7.103553 10.341822 -21.300109
LeftToeBase 7.859820 -0.000000 -0.000000
Spine 7.112841 -3.703471 -0.772184
RightShoulder -4.239436 -5.541782 -26.875009
RightArm 6.344043 32.314828 32.087879
RightForeArm 3.921292 -0.000000 17.270236
RightHand 0.652834 -0.000000 2.740417
RightHandThumb1 -24.326973 -0.000000 -32.862282
LeftShoulder -23.180607 28.682042 14.878001
LeftArm 50.796113 -52.957816 -60.157376
LeftForeArm 43.489191 0.000000 2.905950
LeftHand -20.491563 -0.000000 -4.013413
LeftHandThumb1 -26.253704 0.000000 33.147579
Head -1.307186 13.262902 1.670899
45
root -0.361368 37.171574 -1.470987 -2.971843 -3.720915 1.011301
RightUpLeg 10.880361 -8.080316 -4.102754
RightLeg -5.643859 -0.000000 0.000000
RightFoot -11.617840 -17.089603 18.350135
RightToeBase 13.782085 -0.000000 -0.000000
LeftUpLeg 9.471921 0.842515 5.889055
LeftLeg -2.791143 -0.000000 0.000000
LeftFoot -7.097760 10.310960 -21.324298
LeftToeBase 7.801608 -0.000000 -0.000000
Spine 7.217180 -3.717684 -0.710900
RightShoulder -4.270514 -5.540122 -26.879721
RightArm 6.428183 32.314591 32.120504
RightForeArm 3.920391 -0.000000 17.241122
RightHand 0.655836 -0.000000 2.696197
RightHandThumb1 -24.326973 -0.000000 -32.862282
LeftShoulder -23.181477 28.686447 14.880489
LeftArm 50.749983 -52.935948 -60.129461
LeftForeArm 43.397751 -0.000000 2.899006
LeftHand -20.349492 0.000000 -4.102474
LeftHandThumb1 -26.253704 0.000000 33.147579
Head -1.367926 13.285619 1.656911
46
root -0.381964 37.171661 -1.483473 -3.022938 -3.711811 1.006281
RightUpLeg 10.911064 -8.052392 -4.062757
RightLeg -5.629872 -0.000000 0.000000
RightFoot -11.646615 -17.124671 18.317771
RightToeBase 13.956417 -0.000000 -0.000000
LeftUpLeg 9.470571 0.830923 5.928909
LeftLeg -2.725398 -0.000000 0.000000
LeftFoot -7.103594 10.294563 -21.373325
LeftToeBase 7.777668 -0.000000 -0.000000
Spine 7.332895 -3.747755 -0.664913
RightShoulder -4.220362 -5.483185 -26.892665
RightArm 6.363061 32.275992 32.081559
RightForeArm 3.956846 -0.000000 17.275022
RightHand 0.662958 -0.000000 2.684603
RightHandThumb1 -24.326973 -0.000000 -32.862282
LeftShoulder -23.223783 28.703526 14.870282
LeftArm 50.807798 -52.931423 -60.221884
LeftForeArm 43.374377 0.000000 2.897584
LeftHand -20.471427 0.000000 -4.126341
LeftHandThumb1 -26.253704 0.000000 33.147579
Head -1.441317 13.281423 1.563382
47
root -0.404139 37.172806 -1.497920 -3.060552 -3.702828 0.982710
RightUpLeg 10.911669 -8.075513 -4.011082
RightLeg -5.586996 -0.000000 0.000000
RightFoot -11.647108 -17.104643 18.283659
RightToeBase 13.785549 -0.000000 -0.000000
LeftUpLeg 9.452498 0.849882 5.991667
LeftLeg -2.657649 -0.000000 0.000000
LeftFoot -7.101207 10.270248 -21.382051
LeftToeBase 7.822524 -0.000000 -0.000000
Spine 7.440452 -3.773329 -0.572444
RightShoulder -4.214583 -5.520996 -26.937711
RightArm 6.430684 32.361975 32.151082
RightForeArm 3.926502 -0.000000 17.298110
RightHand 0.672704 -0.000000 2.585685
RightHandThumb1 -24.326973 -0.000000 -32.862282
LeftShoulder -23.270279 28.744355 14.791418
LeftArm 50.949022 -52.979141 -60.369266
LeftForeArm 43.465130 0.000000 2.906838
LeftHand -20.541156 -0.000000 -3.874475
LeftHandThumb1 -26.253704 0.000000 33.147579
Head -1.514095 13.438486 1.530739
